<svg width="49" height="48" viewBox="0 0 49 48" fill="none" xmlns="http://www.w3.org/2000/svg">
<g filter="url(#filter0_d_136_5)">
<rect x="4.5" width="40" height="40" rx="20" fill="#F4FCFF"/>
<path d="M36.2209 16.3365C35.9434 15.6769 35.4823 15.2013 34.8872 14.9618L34.8792 14.9588C34.6084 14.8527 34.32 14.7984 34.0291 14.7988H33.9971C32.6349 14.8193 31.2442 15.9769 30.5371 17.6797C30.0185 18.9248 29.959 20.264 30.3781 21.2622C30.6551 21.9222 31.1172 22.3978 31.7148 22.6373L31.7213 22.6398C31.9922 22.7459 32.2805 22.8001 32.5714 22.7999C33.9466 22.7999 35.3518 21.6422 36.0719 19.917C36.584 18.6733 36.6405 17.3351 36.2209 16.3365Z" fill="#387E96"/>
<path d="M30.7781 23.6805C29.9925 23.2084 29.2499 22.7619 28.7649 21.9598C27.4267 19.7394 26.6186 18.3993 24.4998 18.3993C22.381 18.3993 21.5709 19.7394 20.2297 21.9598C19.7436 22.7629 18.9995 23.2099 18.2114 23.684C17.3078 24.2271 16.3742 24.7881 15.9711 25.8923C15.8144 26.2903 15.7355 26.7147 15.7386 27.1425C15.7386 28.9402 17.1388 30.4029 18.859 30.4029C19.7466 30.4029 20.6913 30.0954 21.6909 29.7698C22.652 29.4568 23.6457 29.1332 24.5048 29.1332C25.3639 29.1332 26.355 29.4568 27.3127 29.7698C28.3103 30.0934 29.2504 30.4009 30.1406 30.4009C31.8583 30.4009 33.256 28.9382 33.256 27.1405C33.2574 26.7124 33.1768 26.288 33.0185 25.8903C32.6154 24.7851 31.6813 24.2236 30.7781 23.6805Z" fill="#387E96"/>
<path d="M19.1991 16.6415C19.7941 17.3881 20.5492 17.7992 21.3253 17.7992C21.4313 17.7992 21.5371 17.7913 21.6419 17.7757C23.2606 17.5376 24.2693 15.5624 23.9382 13.2751C23.7997 12.3134 23.4296 11.4178 22.8996 10.7537C22.3055 10.0086 21.5494 9.59805 20.7738 9.59805C20.6678 9.59805 20.562 9.60591 20.4572 9.62155C18.8385 9.85958 17.8299 11.8349 18.1609 14.1222C18.2989 15.0823 18.669 15.9769 19.1991 16.6415Z" fill="#387E96"/>
<path d="M27.3582 17.7757C27.463 17.7913 27.5688 17.7992 27.6747 17.7992C28.4513 17.7992 29.2059 17.3881 29.801 16.6415C30.3306 15.9769 30.6986 15.0823 30.8387 14.1212C31.1697 11.8349 30.1611 9.85958 28.5423 9.62055C28.4376 9.60491 28.3317 9.59705 28.2258 9.59705C27.4502 9.59805 26.6941 10.0086 26.1 10.7537C25.5699 11.4178 25.1999 12.3134 25.0619 13.2761C24.7308 15.5624 25.7395 17.5376 27.3582 17.7757Z" fill="#387E96"/>
<path d="M17.2783 22.6398L17.2853 22.6373C17.8819 22.3978 18.3434 21.9227 18.62 21.2632C19.039 20.263 18.98 18.9253 18.4624 17.6802C17.7459 15.9569 16.3412 14.7988 14.9675 14.7988C14.6766 14.7983 14.3882 14.8526 14.1173 14.9588L14.1103 14.9613C13.5153 15.1988 13.0537 15.6759 12.7772 16.3355C12.3581 17.3356 12.4171 18.6733 12.9347 19.9185C13.6513 21.6417 15.056 22.7999 16.4297 22.7999C16.7201 22.8001 17.0079 22.7458 17.2783 22.6398Z" fill="#387E96"/>
</g>
<defs>
<filter id="filter0_d_136_5" x="0.5" y="0" width="48" height="48" filterUnits="userSpaceOnUse" color-interpolation-filters="sRGB">
<feFlood flood-opacity="0" result="BackgroundImageFix"/>
<feColorMatrix in="SourceAlpha" type="matrix" values="0 0 0 0 0 0 0 0 0 0 0 0 0 0 0 0 0 0 127 0" result="hardAlpha"/>
<feOffset dy="4"/>
<feGaussianBlur stdDeviation="2"/>
<feComposite in2="hardAlpha" operator="out"/>
<feColorMatrix type="matrix" values="0 0 0 0 0 0 0 0 0 0 0 0 0 0 0 0 0 0 0.25 0"/>
<feBlend mode="normal" in2="BackgroundImageFix" result="effect1_dropShadow_136_5"/>
<feBlend mode="normal" in="SourceGraphic" in2="effect1_dropShadow_136_5" result="shape"/>
</filter>
</defs>
</svg>
